<mxfile host="app.diagrams.net" modified="2024-08-27T08:52:30.681Z" agent="Mozilla/5.0 (Macintosh; Intel Mac OS X 10_15_7) AppleWebKit/537.36 (KHTML, like Gecko) Chrome/128.0.0.0 Safari/537.36" version="24.4.14" etag="491gIXzE7RnUC_Qe83QZ" type="github">
  <diagram name="第 1 页" id="TAuhHNCcmVBmP9QnVMeC">
    <mxGraphModel>
      <root>
        <mxCell id="0" />
        <mxCell id="1" parent="0" />
      </root>
    </mxGraphModel>
  </diagram>
</mxfile>
